<?xml version="1.0" encoding="utf-8"?>
<svg id="master-artboard" viewBox="0 0 1400 980" xmlns="http://www.w3.org/2000/svg" width="1400px" height="980px" version="1.1" style="shape-rendering:geometricPrecision; text-rendering:geometricPrecision; image-rendering:optimizeQuality; fill-rule:evenodd; clip-rule:evenodd"><rect id="ee-background" x="0" y="0" width="1400" height="980" style="fill: white; fill-opacity: 0; pointer-events: none;"/><defs><path id="text-path-0" d="M 406.07806396484375 209.2422332763672 A 100 1 0 0 1 662.3338012695312 209.2422332763672 A 100 1 0 0 1 406.07806396484375 209.2422332763672 Z" style="fill: none; stroke: red; stroke-width: 2;"/><radialGradient id="gradient-0" gradientUnits="objectBoundingBox" cx="0.5" cy="0.5" r="0.5">
                <stop offset="0" style="stop-color: #009ea1"/>
                <stop offset="1" style="stop-color: #003a3b"/>
              </radialGradient></defs><g transform="matrix(1, 0, 0, 1, 0.000004540246209217003, 0.000035057824334217)"><path d="M 467.8863220214844 113.90215301513672 C 467.8863220214844 113.90215301513672 468.1153564453125 113.39352416992188 468.57342529296875 112.37628173828125 C 469.0382080078125 111.36563873291016 469.51226806640625 109.87490844726562 469.99560546875 107.90408325195312 C 470.485595703125 105.93319702148438 470.7227783203125 104.02444458007812 470.7071533203125 102.17784881591797 C 470.6914978027344 100.33124542236328 470.3194274902344 98.90435028076172 469.5908508300781 97.89714813232422 L 491.830078125 97.7088394165039 C 490.73687744140625 99.30481719970703 489.8150939941406 101.0660171508789 489.064697265625 102.99244689941406 L 486.46026611328125 109.56472778320312 C 482.18316650390625 120.16133117675781 475.8906555175781 128.15821838378906 467.58270263671875 133.555419921875 C 468.251708984375 149.57699584960938 471.81292724609375 164.6640625 478.2663269042969 178.81658935546875 C 484.0828552246094 191.76780700683594 490.8817443847656 201.45059204101562 498.6629943847656 207.86492919921875 L 473.8338928222656 208.07516479492188 C 467.1006774902344 201.03192138671875 462.2648620605469 188.16241455078125 459.32647705078125 169.46661376953125 C 458.20843505859375 162.6158447265625 457.2502136230469 154.56365966796875 456.45184326171875 145.31008911132812 C 456.24444580078125 142.86509704589844 455.49853515625 140.98800659179688 454.2140808105469 139.6788330078125 C 452.92962646484375 138.3696746826172 451.1374206542969 137.72482299804688 448.8374938964844 137.74429321289062 C 446.5309143066406 137.76382446289062 444.9228210449219 137.99411010742188 444.01318359375 138.43516540527344 C 443.11016845703125 138.86949157714844 442.4223327636719 139.52200317382812 441.9496765136719 140.39271545410156 C 441.1423034667969 141.88626098632812 440.76153564453125 145.3429412841797 440.80743408203125 150.7627410888672 C 441.07196044921875 182.0016326904297 441.9959411621094 200.18446350097656 443.57940673828125 205.3112335205078 C 443.8741760253906 206.26876831054688 444.2427062988281 207.27235412597656 444.6849365234375 208.3219757080078 L 420.5657958984375 208.5261993408203 C 422.0682067871094 204.86668395996094 422.9423828125 201.8125 423.1883239746094 199.36366271972656 C 423.43426513671875 196.9148406982422 423.6387634277344 194.2963409423828 423.80181884765625 191.50819396972656 C 424.14056396484375 185.84512329101562 424.26947021484375 178.23709106445312 424.1885986328125 168.68409729003906 C 424.09149169921875 157.2178497314453 423.8092041015625 146.71319580078125 423.34173583984375 137.17013549804688 L 422.3841247558594 117.3775405883789 C 422.0361022949219 110.1335678100586 421.0828552246094 105.03144836425781 419.5244140625 102.07120513916016 C 418.8876037597656 100.87654876708984 418.1072692871094 99.65978240966797 417.18341064453125 98.4208984375 L 445.40240478515625 98.18196105957031 C 443.50360107421875 100.69145965576172 442.27667236328125 103.02860260009766 441.7216491699219 105.19337463378906 C 440.8846435546875 108.7005844116211 440.4808654785156 112.19412994384766 440.5103454589844 115.67400360107422 C 440.539794921875 119.15388488769531 440.6343688964844 121.65983581542969 440.79400634765625 123.1918716430664 C 440.947021484375 124.73062896728516 441.2944641113281 126.0010757446289 441.8363037109375 127.00318908691406 C 442.9525146484375 128.91380310058594 444.9273681640625 129.87045288085938 447.7608337402344 129.8731231689453 C 450.5942077636719 129.869140625 452.95379638671875 129.41580200195312 454.8395690917969 128.5131378173828 C 456.7253112792969 127.6104736328125 458.4785461425781 126.40892028808594 460.0992126464844 124.90847778320312 C 461.7198486328125 123.40137481689453 463.192138671875 121.69551086425781 464.51605224609375 119.79090118408203 C 465.8466491699219 117.88623046875 466.9700622558594 115.9233169555664 467.8863220214844 113.90215301513672 ZM 522.3900756835938 117.18880462646484 L 522.4548950195312 188.87881469726562 C 522.5009765625 191.6188201904297 522.810546875 193.68556213378906 523.3836059570312 195.07901000976562 C 523.9566040039062 196.46580505371094 525.156494140625 197.15939331054688 526.983154296875 197.15977478027344 C 535.5231323242188 197.1615753173828 542.1709594726562 191.73965454101562 546.9265747070312 180.8939971923828 C 551.5354614257812 170.3416290283203 553.8419189453125 155.7087860107422 553.8458862304688 136.99545288085938 C 553.8479614257812 127.15545654296875 552.6961669921875 119.69187927246094 550.3905639648438 114.60472106933594 C 547.2786865234375 107.74406433105469 541.8594360351562 104.31291198730469 534.1327514648438 104.311279296875 C 529.1860961914062 104.31023406982422 526.1492919921875 104.88292694091797 525.0223999023438 106.02935791015625 C 523.8955078125 107.18245697021484 523.1751708984375 108.6123046875 522.8615112304688 110.31890106201172 C 522.5477905273438 112.01882934570312 522.390625 114.30879974365234 522.3900756835938 117.18880462646484 M 502.3608703613281 207.95457458496094 C 503.9016418457031 204.3082275390625 504.8022766113281 201.26174926757812 505.0627746582031 198.8151397705078 C 505.3299865722656 196.3685302734375 505.5605163574219 193.7519073486328 505.75445556640625 190.9652862548828 C 506.1356506347656 185.3053741455078 506.3272399902344 177.69874572753906 506.32928466796875 168.14540100097656 C 506.33172607421875 156.5854034423828 506.1439514160156 146.02870178222656 505.7659606933594 136.47528076171875 L 504.97015380859375 116.68511962890625 C 504.7845458984375 111.69174194335938 504.35528564453125 108.21165466308594 503.682373046875 106.2448501586914 C 502.6230163574219 103.12461853027344 500.89361572265625 100.31758880615234 498.494140625 97.8237533569336 L 538.01416015625 97.83210754394531 C 554.427490234375 97.83557891845703 565.1527709960938 104.29117584228516 570.1900634765625 117.19891357421875 C 571.96240234375 121.75928497314453 572.847900390625 127.27946472167969 572.8465576171875 133.7594757080078 C 572.8388671875 169.9861297607422 560.5506591796875 193.06353759765625 535.98193359375 202.99168395996094 C 527.674560546875 206.34991455078125 517.9075317382812 208.02786254882812 506.68084716796875 208.02548217773438 C 505.9608459472656 208.02532958984375 505.2408447265625 208.02517700195312 504.5208435058594 208.0250244140625 C 503.80084228515625 208.02487182617188 503.0808410644531 208.0013885498047 502.3608703613281 207.95457458496094 ZM 584.4095458984375 130.22897338867188 C 583.28125 127.43208312988281 582.7340698242188 124.14037322998047 582.7680053710938 120.3538589477539 C 582.8020629882812 116.56067657470703 582.9765625 113.45545196533203 583.2915649414062 111.03817749023438 C 583.5999755859375 108.61418151855469 584.0029907226562 106.42103576660156 584.5006103515625 104.45874786376953 C 585.6868286132812 100.05587768554688 587.119873046875 97.86197662353516 588.7998046875 97.87703704833984 L 652.2172241210938 98.44563293457031 C 655.0037841796875 98.47061920166016 656.8400268554688 102.6139144897461 657.7260131835938 110.87551879882812 C 657.9453735351562 113.17758178710938 658.0441284179688 115.55189514160156 658.0221557617188 117.99846649169922 C 657.9705200195312 123.75823211669922 657.3053588867188 128.04910278320312 656.0266723632812 130.87109375 C 652.0150756835938 118.02127075195312 646.7388305664062 109.7669677734375 640.1980590820312 106.1081771850586 C 638.7191772460938 105.2348861694336 637.259765625 104.79178619384766 635.81982421875 104.77886962890625 C 634.3798828125 104.76596069335938 633.2499389648438 105.12584686279297 632.4299926757812 105.85852813720703 C 631.6033325195312 106.59780883789062 630.9193725585938 107.77838897705078 630.378173828125 109.4002685546875 C 629.4923706054688 112.27244567871094 629.0313720703125 115.7251205444336 628.9952392578125 119.75828552246094 L 628.7532348632812 146.74720764160156 L 628.625732421875 168.77694702148438 L 628.4385986328125 189.64610290527344 C 628.3964233398438 194.3525848388672 628.9752807617188 197.82791137695312 630.1752319335938 200.0720977783203 C 631.3818969726562 202.30967712402344 632.6166381835938 204.01080322265625 633.879638671875 205.17550659179688 C 635.1358642578125 206.3401641845703 636.6261596679688 207.43356323242188 638.3504028320312 208.4557342529297 L 601.5618896484375 208.12588500976562 C 605.047119140625 205.3236846923828 607.2778930664062 203.0169219970703 608.254150390625 201.2056121826172 C 610.05712890625 197.90830993652344 610.9788818359375 194.00308227539062 611.0193481445312 189.48992919921875 L 611.6007690429688 124.64253234863281 C 611.6682739257812 117.10950469970703 611.421875 112.24710083007812 610.8615112304688 110.0553207397461 C 610.3077392578125 107.8702621459961 609.6275634765625 106.40077209472656 608.8209228515625 105.64684295654297 C 608.0076293945312 104.89952850341797 606.8809814453125 104.5194091796875 605.4410400390625 104.50650024414062 C 604.0010986328125 104.49358367919922 602.5340576171875 104.90045166015625 601.0399169921875 105.72708892822266 C 599.5458374023438 106.54706573486328 598.0859985351562 107.6373519897461 596.660400390625 108.99795532226562 C 595.2282104492188 110.35183715820312 593.8707275390625 111.92306518554688 592.5879516601562 113.71163177490234 C 591.298583984375 115.5001449584961 590.1185913085938 117.34963989257812 589.048095703125 119.26011657714844 C 586.9475708007812 123.02810668945312 585.4013671875 126.68438720703125 584.4095458984375 130.22897338867188 Z" transform="matrix(5.367055892944336, 0, 0, 5.367055892944336, -2180.179931640625, -315.7669677734375)" style="fill: rgb(39, 49, 125); white-space: pre; color: rgb(51, 51, 51); stroke-opacity: 1; stroke: rgb(0, 25, 252); stroke-width: 1;"/></g></svg>